<?xml version="1.0" encoding="UTF-8"?>
<svg xmlns="http://www.w3.org/2000/svg" xmlns:xlink="http://www.w3.org/1999/xlink" width="570px" height="500px" viewBox="0 0 569 500" version="1.1">
<g id="surface1">
<path style=" stroke:none;fill-rule:evenodd;fill:rgb(100%,0%,0%);fill-opacity:1;" d="M 29.144531 499.835938 C 7.996094 498.105469 -6.402344 473.515625 2.863281 454.285156 C 41.191406 387.714844 216.125 87.0625 258.148438 13.320312 C 270.222656 -4.132812 298.707031 -4.316406 310.722656 13.328125 C 349.1875 79.820312 523.378906 380.214844 566.199219 453.496094 C 575.273438 472.683594 561.1875 497.453125 539.90625 499.042969 C 463.117188 499.121094 113.992188 499.378906 29.144531 499.835938 Z M 29.144531 499.835938 "/>
<path style=" stroke:none;fill-rule:evenodd;fill:rgb(100%,73.333333%,0%);fill-opacity:1;" d="M 85.839844 441.804688 L 488.84375 440.636719 L 286.300781 84.691406 Z M 85.839844 441.804688 "/>
<path style="fill-rule:nonzero;fill:rgb(0%,0%,0%);fill-opacity:1;stroke-width:1.00013;stroke-linecap:butt;stroke-linejoin:miter;stroke:rgb(100%,73.333333%,0%);stroke-opacity:1;stroke-miterlimit:4;" d="M 431.450855 289.768498 L 436.980954 311.28757 L 376.934964 326.335776 C 372.892414 327.347709 367.410523 325.261888 364.462974 323.045272 C 363.560803 322.363766 361.618726 321.696027 358.340611 322.522095 L 347.425036 324.566614 L 346.316262 319.568902 C 353.120418 317.648294 354.924759 318.006257 357.465987 316.608825 C 359.649102 316.058113 361.164198 314.942921 362.031934 313.807078 C 364.215049 310.964027 366.70807 305.993851 371.397979 304.816704 Z M 431.450855 289.768498 " transform="matrix(0.567208,0,0,0.567447,91.796951,95.610734)"/>
<path style="fill-rule:nonzero;fill:rgb(12.941176%,7.843137%,7.843137%);fill-opacity:1;stroke-width:2;stroke-linecap:round;stroke-linejoin:round;stroke:rgb(100%,73.333333%,0%);stroke-opacity:1;stroke-miterlimit:4;" d="M 412.850347 322.248357 C 414.97148 322.599436 414.854405 293.914224 413.201573 292.034919 C 407.995154 286.541567 394.345521 291.676957 390.110141 297.239148 L 394.462597 322.014305 L 388.567498 323.790351 L 394.841371 326.57833 Z M 412.850347 322.248357 " transform="matrix(0.567208,0,0,0.567447,90.573879,97.180129)"/>
<path style="fill-rule:nonzero;fill:rgb(0%,0%,0%);fill-opacity:1;stroke-width:0.69002;stroke-linecap:butt;stroke-linejoin:miter;stroke:rgb(0%,0%,0%);stroke-opacity:1;stroke-miterlimit:4;" d="M 273.718219 350.255135 L 593.238085 531.907492 C 594.092048 536.320072 591.144499 536.829481 588.141855 539.982307 L 268.621989 358.32995 C 256.673395 378.664991 256.177546 381.563113 244.538857 402.951391 C 196.33816 370.170258 147.744916 348.066055 178.315411 299.58963 C 208.892793 251.120089 297.691162 308.173853 297.691162 308.173853 C 297.691162 308.173853 285.763228 331.159196 273.718219 350.255135 Z M 273.718219 350.255135 " transform="matrix(0.567208,0,0,0.567447,78.147051,88.967448)"/>
<path style="fill-rule:nonzero;fill:rgb(0%,0%,0%);fill-opacity:1;stroke-width:1;stroke-linecap:butt;stroke-linejoin:miter;stroke:rgb(100%,73.333333%,0%);stroke-opacity:1;stroke-miterlimit:4;" d="M 305.907112 357.373088 C 277.512845 363.14868 259.483208 380.771464 248.836219 406.827027 C 233.712811 434.507189 216.268553 469.828481 228.850732 515.131428 L 237.893098 539.376524 C 255.240941 580.796951 286.410587 571.38666 316.368157 544.745966 L 367.729895 455.337871 L 335.389493 522.868932 L 347.751295 577.086529 L 405.772565 559.96627 C 405.772565 559.96627 405.028791 471.033163 407.673321 467.701356 C 417.507668 455.365407 386.606607 405.636112 350.609316 437.267633 L 303.049091 488.628412 L 344.90016 416.340577 L 417.190876 437.267633 C 417.190876 437.267633 430.930037 436.475985 437.341646 422.129937 C 449.613919 394.670059 440.847026 334.89027 440.847026 334.89027 C 430.296452 337.760856 427.197393 338.745254 414.546345 341.299181 C 410.820588 342.049526 415.283233 395.41352 408.630586 394.463542 C 401.971053 393.513564 336.339871 373.543369 336.339871 373.543369 C 338.013363 371.843046 336.415626 352.554358 342.641291 351.590612 C 354.886017 349.683771 359.121398 354.970607 364.362251 344.479543 C 365.856686 341.485046 364.403571 335.606195 364.87876 330.856304 C 365.071591 328.956348 370.057632 328.853089 370.822067 327.152766 C 365.973761 315.890705 371.187067 313.254172 367.351121 305.688765 C 365.498572 302.095369 366.745083 300.381278 364.073005 297.49004 C 363.78376 295.879208 380.201885 293.875993 381.613679 292.086179 C 381.799622 291.852126 381.448396 290.261945 378.962262 290.110499 C 374.582258 289.835143 366.366309 291.081129 363.542722 291.266994 C 360.037342 291.501047 360.505644 286.014579 353.191865 276.14995 C 350.264976 272.398224 336.27789 271.654763 321.73986 274.484046 C 315.741459 275.647425 303.358997 273.754352 298.407389 279.419802 C 296.492859 281.615766 294.750499 295.521245 296.740784 300.11969 C 302.050505 320.619945 295.239462 335.647499 303.551827 344.066509 C 306.396074 346.943979 304.08211 353.132605 305.907112 357.373088 Z M 305.907112 357.373088 " transform="matrix(0.567208,0,0,0.567447,78.147051,88.967448)"/>
<path style="fill-rule:nonzero;fill:rgb(0%,0%,0%);fill-opacity:1;stroke-width:1;stroke-linecap:butt;stroke-linejoin:miter;stroke:rgb(100%,73.333333%,0%);stroke-opacity:1;stroke-miterlimit:4;" d="M 364.906308 574.443112 C 364.906308 574.443112 385.587361 567.387114 391.475573 566.375181 C 393.596707 566.010334 394.66416 592.940151 394.66416 592.940151 C 402.556431 597.242589 414.443043 594.936482 425.682297 592.272413 C 443.326273 588.100769 459.090153 598.598717 447.465238 619.174695 C 430.200037 619.222882 401.172184 618.8305 383.906982 614.466107 L 383.232076 619.842433 L 354.651866 617.488139 C 355.726206 609.991572 353.129884 603.410563 360.705361 594.289396 Z M 364.906308 574.443112 " transform="matrix(0.567208,0,0,0.567447,78.147051,88.967448)"/>
<path style="fill-rule:nonzero;fill:rgb(0%,0%,0%);fill-opacity:1;stroke-width:1;stroke-linecap:butt;stroke-linejoin:miter;stroke:rgb(100%,73.333333%,0%);stroke-opacity:1;stroke-miterlimit:4;" d="M 528.481527 556.152589 L 545.023615 577.774919 L 571.799484 575.406858 C 591.908933 557.233361 605.186679 558.864846 615.482442 579.000253 C 615.578857 581.850188 569.182501 604.952557 567.557217 601.469304 C 566.386461 598.95668 571.641088 608.47023 571.641088 608.47023 L 539.541724 620.393145 C 531.146717 611.450959 522.180107 602.96311 519.824822 589.16089 L 504.191791 565.748746 L 528.157847 554.775809 Z M 528.481527 556.152589 " transform="matrix(0.567208,0,0,0.567447,78.147051,88.967448)"/>
<path style="fill-rule:nonzero;fill:rgb(0%,0%,0%);fill-opacity:1;stroke-width:1;stroke-linecap:butt;stroke-linejoin:miter;stroke:rgb(100%,73.333333%,0%);stroke-opacity:1;stroke-miterlimit:4;" d="M 408.182944 487.526988 L 408.189831 532.946961 L 461.755344 516.115825 C 481.134792 537.290702 481.644415 555.181959 495.900087 571.242098 L 532.675586 550.445836 L 485.315079 483.809682 C 481.499793 478.770667 477.67762 479.355799 473.862334 477.387003 Z M 408.182944 487.526988 " transform="matrix(0.567208,0,0,0.567447,78.147051,88.967448)"/>
<path style="fill:none;stroke-width:1;stroke-linecap:butt;stroke-linejoin:miter;stroke:rgb(0%,0%,0%);stroke-opacity:1;stroke-miterlimit:4;" d="M 291.217572 612.511079 Z M 291.217572 612.511079 " transform="matrix(0.567208,0,0,0.567447,78.147051,88.967448)"/>
<path style="fill-rule:nonzero;fill:rgb(0%,0%,0%);fill-opacity:1;stroke-width:1.04925;stroke-linecap:butt;stroke-linejoin:miter;stroke:rgb(0%,0%,0%);stroke-opacity:1;stroke-miterlimit:4;" d="M 325.493164 622.602877 C 314.853062 610.480329 308.234849 603.334841 299.33022 590.97824 C 294.902009 584.830917 293.194083 574.746003 284.923039 569.920389 C 262.671796 562.327447 239.428854 539.472899 205.029299 531.873073 C 200.53222 510.67066 198.066747 516.583931 189.086362 503.717921 C 176.490409 488.380592 177.330599 467.790846 142.917271 461.003321 C 137.641984 442.485629 126.905466 445.955115 116.533949 441.280947 C 83.546188 501.563261 49.243048 555.574341 14.361418 623.518436 Z M 325.493164 622.602877 " transform="matrix(0.567208,0,0,0.567447,78.147051,88.967448)"/>
</g>
</svg>
